<svg width="36" height="32" viewBox="0 0 36 32" fill="none" xmlns="http://www.w3.org/2000/svg">
<g clip-path="url(#clip0_779_1790)">
<path d="M17.9651 10.0127C19.0726 10.0127 19.9698 9.02603 19.9698 7.80821C19.9698 6.59038 19.0726 5.60376 17.9651 5.60376C16.8577 5.60376 15.9604 6.59038 15.9604 7.80821C15.9604 9.02603 16.8577 10.0127 17.9651 10.0127Z" fill="white"/>
<path d="M32.5702 28.5021H32.6306L33.0324 30.0244H32.1685L32.5702 28.5021ZM32.6015 27.1172H31.3337L29.7017 31.9976H31.6501L31.8333 31.3063H33.3738L33.557 31.9976H35.5054L33.8734 27.1172H32.6056H32.6015Z" fill="white"/>
<path d="M10.2065 28.5021H10.2668L10.6686 30.0244H9.8047L10.2065 28.5021ZM10.2377 27.1172H8.96994L7.33789 31.9976H9.28635L9.46954 31.3063H11.01L11.1932 31.9976H13.1416L11.5096 27.1172H10.2419H10.2377Z" fill="white"/>
<path d="M17.4777 27.1196L16.5555 30.6152H16.5264H16.4952L15.573 27.1196H13.6245L15.2586 31.9978H16.5264H17.7941L19.4262 27.1196H17.4777Z" fill="white"/>
<path d="M4.07808 27.1196V28.8022H2.91025V27.1196H1.00342V31.9978H2.91025V30.1207H4.07808V31.9978H5.98491V27.1196H4.07808Z" fill="white"/>
<path d="M22.6764 27.1196H20.7695V32.0001H22.6764V27.1196Z" fill="white"/>
<path d="M24.6782 27.1196V31.9978H28.3462L28.7916 30.6815H26.5934V27.1196H24.6782Z" fill="white"/>
<path d="M17.965 11.3061C16.2081 11.3061 14.7842 9.74031 14.7842 7.80828C14.7842 5.87624 16.2081 4.31046 17.965 4.31046C19.7219 4.31046 21.1458 5.87624 21.1458 7.80828C21.1458 9.74031 19.7219 11.3061 17.965 11.3061ZM35.93 21.2272C35.93 20.014 35.037 19.032 33.9337 19.032H19.9634V15.3006C22.9111 14.3507 25.0657 11.3565 25.0657 7.80828C25.0657 3.49553 21.8869 0 17.965 0C14.0431 0 10.8664 3.49553 10.8664 7.80828C10.8664 11.3565 13.021 14.3507 15.9687 15.3006V19.032H1.99634C0.893046 19.032 0 20.0163 0 21.2272C0 22.4382 0.893046 23.4225 1.99634 23.4225H33.9337C35.037 23.4225 35.93 22.4405 35.93 21.2272Z" fill="white"/>
</g>
<defs>
<clipPath id="clip0_779_1790">
<rect width="35.93" height="32" fill="white"/>
</clipPath>
</defs>
</svg>
