<svg width="566" height="141" viewBox="0 0 566 141" fill="none" xmlns="http://www.w3.org/2000/svg">
<g clip-path="url(#clip0_783_1766)">
<path d="M86.3 43.74C91.62 43.74 95.93 39.43 95.93 34.11C95.93 28.79 91.62 24.48 86.3 24.48C80.98 24.48 76.67 28.79 76.67 34.11C76.67 39.43 80.98 43.74 86.3 43.74Z" fill="white"/>
<path d="M86.3 49.39C77.86 49.39 71.02 42.55 71.02 34.11C71.02 25.67 77.86 18.83 86.3 18.83C94.74 18.83 101.58 25.67 101.58 34.11C101.58 42.55 94.74 49.39 86.3 49.39ZM172.6 92.73C172.6 87.43 168.31 83.14 163.01 83.14H95.9V66.84C110.06 62.69 120.41 49.61 120.41 34.11C120.41 15.27 105.14 0 86.3 0C67.46 0 52.2 15.27 52.2 34.11C52.2 49.61 62.55 62.69 76.71 66.84V83.14H9.59C4.29 83.14 0 87.44 0 92.73C0 98.02 4.29 102.32 9.59 102.32H163.01C168.31 102.32 172.6 98.03 172.6 92.73Z" fill="white"/>
<path d="M156.46 124.51H156.75L158.68 131.16H154.53L156.46 124.51ZM156.61 118.46H150.52L142.68 139.78H152.04L152.92 136.76H160.32L161.2 139.78H170.56L162.72 118.46H156.63H156.61Z" fill="white"/>
<path d="M49.03 124.51H49.32L51.25 131.16H47.1L49.03 124.51ZM49.18 118.46H43.09L35.25 139.78H44.61L45.49 136.76H52.89L53.77 139.78H63.13L55.29 118.46H49.2H49.18Z" fill="white"/>
<path d="M83.96 118.47L79.53 133.74H79.39H79.24L74.81 118.47H65.45L73.3 139.78H79.39H85.48L93.32 118.47H83.96Z" fill="white"/>
<path d="M19.5899 118.47V125.82H13.9799V118.47H4.81995V139.78H13.9799V131.58H19.5899V139.78H28.7499V118.47H19.5899Z" fill="white"/>
<path d="M108.93 118.47H99.77V139.79H108.93V118.47Z" fill="white"/>
<path d="M118.55 118.47V139.78H136.17L138.31 134.03H127.75V118.47H118.55Z" fill="white"/>
<path d="M526.35 125.06C527.43 132.77 532.75 140.41 546.26 140.41C559.07 140.41 565.16 133.62 565.16 125.36C565.16 118.65 562.69 112.63 547.41 108.85C537.69 106.46 534.37 104.3 534.37 98.8202C534.37 93.3402 538.38 89.8702 545.64 89.8702C553.82 89.8702 557.21 93.9602 558.37 99.2802H564C563.31 92.4902 558.14 85.1602 545.87 85.1602C533.6 85.1602 528.59 91.7201 528.59 99.2001C528.59 106.68 533.3 110.85 545.26 113.86C556.68 116.64 559.3 120.03 559.3 125.82C559.3 131.61 555.75 135.85 546.57 135.85C538.16 135.85 533.61 131.92 532.06 125.05H526.35V125.06ZM514.96 109.01H487.8V90.8002H516.27V85.9402H482.32V139.8H516.81L517.58 134.94H487.8V113.88H514.96V109.02V109.01ZM466.69 111.09H444.93V115.95H461.36V116.57C461.36 127.22 457.97 135.63 445.08 135.63C432.19 135.63 426.87 124.83 426.87 113.1C426.87 100.22 432.5 89.9501 445.54 89.9501C454.64 89.9501 459.5 94.4202 461.59 101.37H467.07C465.45 91.5702 457.74 85.1702 445.7 85.1702C429.65 85.1702 421.09 97.2802 421.09 113.33C421.09 129.38 429.11 140.49 444.62 140.49C455.19 140.49 459.59 135.55 461.75 131.77C461.83 136.4 461.98 139.02 462.29 139.79H466.69V111.09ZM381.63 117.42C386.1 104.46 389.5 95.1202 390.81 90.8002H390.89C391.97 94.6602 394.9 102.22 400.53 117.42H381.63ZM402.16 122.28L408.64 139.8H414.58L394.29 85.9402H387.58L368.06 139.8H373.61L380.01 122.28H402.16ZM351.49 139.8V119.97C351.49 119.28 351.57 118.97 351.72 118.66L371.55 85.9402H365.61C360.13 94.9702 351.34 109.94 349.02 114.26C346.63 109.94 337.99 94.8902 332.82 85.9402H326.42L345.55 118.42C345.78 118.73 345.86 119.27 345.86 119.81V139.79H351.49V139.8ZM298.11 90.0302C310.61 90.0302 316.78 100.52 316.78 112.64C316.78 124.76 311.3 135.71 298.03 135.71C285.76 135.71 279.28 124.68 279.28 112.64C279.28 100.6 285.07 90.0302 298.11 90.0302ZM298.34 85.1702C282.21 85.1702 273.49 97.5202 273.49 112.87C273.49 128.22 282.29 140.57 297.8 140.57C314.54 140.57 322.65 127.3 322.65 112.48C322.65 96.6602 313.31 85.1602 298.34 85.1602M246.49 139.79L267.01 85.9302H261.3L250.88 113.78C247.95 121.65 244.55 130.6 243.4 134.77H243.25C242.09 130.06 239.01 121.58 236.07 113.47L226.04 85.9202H220.18L240.01 139.78H246.49V139.79Z" fill="white"/>
</g>
<defs>
<clipPath id="clip0_783_1766">
<rect width="565.16" height="140.57" fill="white"/>
</clipPath>
</defs>
</svg>
